<?xml version="1.0" encoding="UTF-8" standalone="no"?>
<!-- Created with Inkscape (http://www.inkscape.org/) -->

<svg
   xmlns:dc="http://purl.org/dc/elements/1.1/"
   xmlns:cc="http://creativecommons.org/ns#"
   xmlns:rdf="http://www.w3.org/1999/02/22-rdf-syntax-ns#"
   xmlns:svg="http://www.w3.org/2000/svg"
   xmlns="http://www.w3.org/2000/svg"
   xmlns:sodipodi="http://sodipodi.sourceforge.net/DTD/sodipodi-0.dtd"
   xmlns:inkscape="http://www.inkscape.org/namespaces/inkscape"
   width="32px"
   height="32px"
   viewBox="0 0 32 32"
   version="1.1"
   id="SVGRoot"
   inkscape:version="0.92.4 (5da689c313, 2019-01-14)"
   sodipodi:docname="Icon.svg"
   inkscape:export-filename="D:\programming\decode-and-copy-extension\icons\icon-16.png"
   inkscape:export-xdpi="48"
   inkscape:export-ydpi="48">
  <defs
     id="defs3721" />
  <sodipodi:namedview
     id="base"
     pagecolor="#ffffff"
     bordercolor="#666666"
     borderopacity="1.0"
     inkscape:pageopacity="0.0"
     inkscape:pageshadow="2"
     inkscape:zoom="22.627417"
     inkscape:cx="13.443786"
     inkscape:cy="16.25075"
     inkscape:document-units="px"
     inkscape:current-layer="layer1"
     showgrid="true"
     inkscape:window-width="1920"
     inkscape:window-height="1017"
     inkscape:window-x="3832"
     inkscape:window-y="-8"
     inkscape:window-maximized="1"
     inkscape:grid-bbox="true"
     showguides="false">
    <inkscape:grid
       type="xygrid"
       id="grid3734" />
  </sodipodi:namedview>
  <metadata
     id="metadata3724">
    <rdf:RDF>
      <cc:Work
         rdf:about="">
        <dc:format>image/svg+xml</dc:format>
        <dc:type
           rdf:resource="http://purl.org/dc/dcmitype/StillImage" />
        <dc:title />
      </cc:Work>
    </rdf:RDF>
  </metadata>
  <g
     inkscape:label="Layer 1"
     inkscape:groupmode="layer"
     id="layer1">
    <g
       id="g3845"
       transform="matrix(0.0659547,0,0,0.0659547,-0.4840213,0)">
      <g
         id="g3787">
        <g
           id="g3785">
          <path
             id="path3781"
             d="m 314.25,85.4 h -227 c -21.3,0 -38.6,17.3 -38.6,38.6 v 325.7 c 0,21.3 17.3,38.6 38.6,38.6 h 227 c 21.3,0 38.6,-17.3 38.6,-38.6 V 124 c -0.1,-21.3 -17.4,-38.6 -38.6,-38.6 z m 11.5,364.2 c 0,6.4 -5.2,11.6 -11.6,11.6 h -227 c -6.4,0 -11.6,-5.2 -11.6,-11.6 V 124 c 0,-6.4 5.2,-11.6 11.6,-11.6 h 227 c 6.4,0 11.6,5.2 11.6,11.6 z"
             inkscape:connector-curvature="0" />
          <path
             id="path3783"
             d="m 401.05,0 h -227 c -21.3,0 -38.6,17.3 -38.6,38.6 0,7.5 6,13.5 13.5,13.5 7.5,0 13.5,-6 13.5,-13.5 0,-6.4 5.2,-11.6 11.6,-11.6 h 227 c 6.4,0 11.6,5.2 11.6,11.6 v 325.7 c 0,6.4 -5.2,11.6 -11.6,11.6 -7.5,0 -13.5,6 -13.5,13.5 0,7.5 6,13.5 13.5,13.5 21.3,0 38.6,-17.3 38.6,-38.6 V 38.6 C 439.65,17.3 422.35,0 401.05,0 Z"
             inkscape:connector-curvature="0" />
        </g>
      </g>
      <g
         id="g3789" />
      <g
         id="g3791" />
      <g
         id="g3793" />
      <g
         id="g3795" />
      <g
         id="g3797" />
      <g
         id="g3799" />
      <g
         id="g3801" />
      <g
         id="g3803" />
      <g
         id="g3805" />
      <g
         id="g3807" />
      <g
         id="g3809" />
      <g
         id="g3811" />
      <g
         id="g3813" />
      <g
         id="g3815" />
      <g
         id="g3817" />
    </g>
    <text
       xml:space="preserve"
       style="font-style:normal;font-weight:normal;font-size:11.89880848px;line-height:1.25;font-family:sans-serif;letter-spacing:0px;word-spacing:0px;fill:#00762c;fill-opacity:1;stroke:none;stroke-width:0.29747021"
       x="4.990921"
       y="23.790218"
       id="text3849"
       inkscape:export-xdpi="96"
       inkscape:export-ydpi="96"
       transform="scale(1.0076423,0.99241566)"><tspan
         sodipodi:role="line"
         x="4.990921"
         y="23.790218"
         id="tspan3851"
         style="fill:#00762c;fill-opacity:1;stroke-width:0.29747021">64</tspan></text>
  </g>
</svg>
